<svg width="18" height="19" viewBox="0 0 18 19" fill="none" xmlns="http://www.w3.org/2000/svg">
<path fill-rule="evenodd" clip-rule="evenodd" d="M7.43822 1.58325C6.41417 1.58325 5.63287 2.37556 5.63287 3.29378V4.18413H9.24357V3.29378C9.24357 2.37556 8.46227 1.58325 7.43822 1.58325ZM10.7436 4.18413V3.29378C10.7436 1.49418 9.23673 0.083252 7.43822 0.083252C5.63971 0.083252 4.13287 1.49418 4.13287 3.29378V4.18413H3.06196C1.79957 4.18413 0.709257 5.12857 0.614783 6.40213L0.00636694 14.6039C-0.0985118 16.0177 1.05886 17.1666 2.45355 17.1666H3.49989C3.91411 17.1666 4.24989 16.8308 4.24989 16.4166C4.24989 16.0024 3.91411 15.6666 3.49989 15.6666H2.45355C1.87093 15.6666 1.46626 15.2001 1.50226 14.7148L2.11067 6.51309C2.14355 6.06984 2.53685 5.68413 3.06196 5.68413H11.8145C12.3396 5.68413 12.7329 6.06984 12.7658 6.51309L12.8353 7.45014C12.8659 7.86322 13.2256 8.17324 13.6387 8.1426C14.0518 8.11196 14.3618 7.75225 14.3312 7.33917L14.2617 6.40213C14.1672 5.12857 13.0769 4.18413 11.8145 4.18413H10.7436ZM5.49989 11.8333C5.49989 10.4065 6.65649 9.24992 8.08323 9.24992H15.4166C16.8433 9.24992 17.9999 10.4065 17.9999 11.8333V16.4166C17.9999 17.8433 16.8433 18.9999 15.4166 18.9999H8.08323C6.65649 18.9999 5.49989 17.8433 5.49989 16.4166V11.8333ZM8.08323 10.7499C7.48492 10.7499 6.99989 11.2349 6.99989 11.8333V16.4166C6.99989 17.0149 7.48492 17.4999 8.08323 17.4999H15.4166C16.0149 17.4999 16.4999 17.0149 16.4999 16.4166V11.8333C16.4999 11.2349 16.0149 10.7499 15.4166 10.7499H8.08323ZM9.91656 11.9999C10.3308 11.9999 10.6666 12.3357 10.6666 12.7499C10.6666 13.3482 11.1516 13.8333 11.7499 13.8333C12.3482 13.8333 12.8332 13.3482 12.8332 12.7499C12.8332 12.3357 13.169 11.9999 13.5832 11.9999C13.9974 11.9999 14.3332 12.3357 14.3332 12.7499C14.3332 14.1767 13.1766 15.3333 11.7499 15.3333C10.3232 15.3333 9.16656 14.1767 9.16656 12.7499C9.16656 12.3357 9.50235 11.9999 9.91656 11.9999Z" fill="#3C4242"/>
</svg>
