<svg width="17" height="16" viewBox="0 0 17 16" fill="none" xmlns="http://www.w3.org/2000/svg">
<path fill-rule="evenodd" clip-rule="evenodd" d="M0.75 1.33325C0.75 0.919038 1.08579 0.583252 1.5 0.583252H2.00526C2.96494 0.583252 3.80481 1.14556 4.19324 1.97273C4.28688 1.9307 4.39071 1.90733 4.5 1.90733H14.355C15.9319 1.90733 17.0864 3.39316 16.6967 4.92117L15.5467 9.43043C15.2738 10.5009 14.3097 11.2499 13.205 11.2499H5.99474C4.76148 11.2499 3.72607 10.3213 3.59232 9.09533L2.91652 2.90051C2.86579 2.43548 2.47305 2.08325 2.00526 2.08325H1.5C1.08579 2.08325 0.75 1.74747 0.75 1.33325ZM4.48069 3.40708L5.08348 8.93266C5.13421 9.39769 5.52695 9.74992 5.99474 9.74992H13.205C13.624 9.74992 13.9897 9.46579 14.0933 9.05977L15.2432 4.55051C15.391 3.97092 14.9531 3.40733 14.355 3.40733H4.5C4.49354 3.40733 4.4871 3.40724 4.48069 3.40708ZM3.25 13.8333C3.25 12.9588 3.95888 12.2499 4.83333 12.2499C5.70779 12.2499 6.41667 12.9588 6.41667 13.8333C6.41667 14.7077 5.70779 15.4166 4.83333 15.4166C3.95888 15.4166 3.25 14.7077 3.25 13.8333ZM12.4167 13.8333C12.4167 12.9588 13.1255 12.2499 14 12.2499C14.8745 12.2499 15.5833 12.9588 15.5833 13.8333C15.5833 14.7077 14.8745 15.4166 14 15.4166C13.1255 15.4166 12.4167 14.7077 12.4167 13.8333Z" fill="#3C4242"/>
</svg>
