<svg width="20" height="16" viewBox="0 0 20 16" fill="none" xmlns="http://www.w3.org/2000/svg">
<path fill-rule="evenodd" clip-rule="evenodd" d="M4.30391 0.416749H15.6963C16.1378 0.416736 16.5138 0.416726 16.8225 0.441947C17.1468 0.468443 17.4623 0.526472 17.7639 0.68015C18.2186 0.911845 18.5883 1.28155 18.82 1.73627C18.9737 2.03788 19.0317 2.35338 19.0582 2.67768C19.0834 2.98637 19.0834 3.36235 19.0834 3.8039V10.1963C19.0834 10.6378 19.0834 11.0138 19.0582 11.3225C19.0317 11.6468 18.9737 11.9623 18.82 12.2639C18.5883 12.7186 18.2186 13.0883 17.7639 13.32C17.4623 13.4737 17.1468 13.5317 16.8225 13.5582C16.5138 13.5834 16.1378 13.5834 15.6963 13.5834H9.22231C8.864 13.5834 8.78378 13.5866 8.71311 13.6004C8.63581 13.6156 8.56078 13.6406 8.48988 13.6749C8.42505 13.7062 8.35895 13.7518 8.07231 13.9667L6.11675 15.4334C5.34764 16.0102 4.25008 15.4615 4.25008 14.5001V13.5834C3.83172 13.5834 3.47375 13.5824 3.17768 13.5582C2.85338 13.5317 2.53788 13.4737 2.23627 13.32C1.78155 13.0883 1.41184 12.7186 1.18015 12.2639C1.02647 11.9623 0.968443 11.6468 0.941947 11.3225C0.916726 11.0138 0.916736 10.6378 0.916749 10.1963V3.80391C0.916736 3.36236 0.916726 2.98637 0.941947 2.67768C0.968443 2.35338 1.02647 2.03788 1.18015 1.73627C1.41184 1.28155 1.78155 0.911844 2.23627 0.68015C2.53788 0.526472 2.85338 0.468443 3.17768 0.441947C3.48637 0.416726 3.86236 0.416736 4.30391 0.416749ZM3.29983 1.93697C3.06829 1.95588 2.97217 1.98868 2.91726 2.01666C2.74478 2.10454 2.60454 2.24478 2.51666 2.41726C2.48868 2.47217 2.45588 2.56829 2.43697 2.79983C2.41733 3.04012 2.41675 3.35433 2.41675 3.83342V10.1667C2.41675 10.6458 2.41733 10.96 2.43697 11.2003C2.45588 11.4319 2.48868 11.528 2.51666 11.5829C2.60454 11.7554 2.74478 11.8956 2.91726 11.9835C2.97217 12.0115 3.06829 12.0443 3.29983 12.0632C3.54012 12.0828 3.85433 12.0834 4.33342 12.0834C5.11582 12.0834 5.75008 12.7177 5.75008 13.5001V13.8334L7.1723 12.7667C7.18664 12.756 7.20083 12.7453 7.21488 12.7348C7.43697 12.568 7.62452 12.4271 7.83682 12.3245C8.02375 12.2341 8.22155 12.1681 8.42532 12.1283C8.65677 12.0831 8.89132 12.0832 9.16907 12.0834C9.18664 12.0834 9.20438 12.0834 9.22231 12.0834H15.6667C16.1458 12.0834 16.46 12.0828 16.7003 12.0632C16.9319 12.0443 17.028 12.0115 17.0829 11.9835C17.2554 11.8956 17.3956 11.7554 17.4835 11.5829C17.5115 11.528 17.5443 11.4319 17.5632 11.2003C17.5828 10.96 17.5834 10.6458 17.5834 10.1667V3.83342C17.5834 3.35433 17.5828 3.04012 17.5632 2.79983C17.5443 2.56829 17.5115 2.47217 17.4835 2.41726C17.3956 2.24478 17.2554 2.10454 17.0829 2.01666C17.028 1.98868 16.9319 1.95588 16.7003 1.93697C16.46 1.91733 16.1458 1.91675 15.6667 1.91675H4.33342C3.85433 1.91675 3.54012 1.91733 3.29983 1.93697ZM5.91675 5.33342C5.91675 4.9192 6.25254 4.58342 6.66675 4.58342H13.3334C13.7476 4.58342 14.0834 4.9192 14.0834 5.33342C14.0834 5.74763 13.7476 6.08342 13.3334 6.08342H6.66675C6.25254 6.08342 5.91675 5.74763 5.91675 5.33342ZM5.91675 8.66675C5.91675 8.25254 6.25254 7.91675 6.66675 7.91675H10.0001C10.4143 7.91675 10.7501 8.25254 10.7501 8.66675C10.7501 9.08096 10.4143 9.41675 10.0001 9.41675H6.66675C6.25254 9.41675 5.91675 9.08096 5.91675 8.66675Z" fill="#3C4242"/>
</svg>
