<svg width="17" height="17" viewBox="0 0 17 17" fill="none" xmlns="http://www.w3.org/2000/svg">
<path fill-rule="evenodd" clip-rule="evenodd" d="M2.92314 0.500001H13.1769C13.574 0.499986 13.9128 0.499974 14.1911 0.528393C14.4867 0.558584 14.7662 0.624735 15.0264 0.790464C15.4178 1.03969 15.7152 1.42301 15.8958 1.86616C16.0097 2.14555 16.0563 2.44423 16.0784 2.78263C16.1 3.1133 16.1 3.52205 16.1 4.03098V13.069C16.1 13.5779 16.1 13.9867 16.0784 14.3174C16.0563 14.6558 16.0097 14.9545 15.8958 15.2338C15.7152 15.677 15.4178 16.0603 15.0264 16.3095C14.7662 16.4753 14.4867 16.5414 14.1911 16.5716C13.9128 16.6 13.574 16.6 13.1769 16.6H2.92314C2.52601 16.6 2.18718 16.6 1.90892 16.5716C1.6133 16.5414 1.33376 16.4753 1.07355 16.3095C0.682241 16.0603 0.384814 15.677 0.204178 15.2338C0.0902944 14.9545 0.0437265 14.6558 0.0216076 14.3174C-5.88037e-06 13.9867 -3.19778e-06 13.5779 8.04735e-08 13.069V4.031C-3.19778e-06 3.52206 -5.88037e-06 3.1133 0.0216076 2.78263C0.0437265 2.44423 0.0902944 2.14555 0.204178 1.86616C0.384814 1.42301 0.682241 1.03969 1.07355 0.790464C1.33376 0.624735 1.6133 0.558584 1.90892 0.528393C2.18718 0.499974 2.52601 0.499986 2.92314 0.500001ZM1.1 5.35V13.05C1.1 13.5823 1.10027 13.9551 1.11927 14.2456C1.13802 14.5325 1.1732 14.6969 1.2228 14.8186C1.32979 15.0811 1.4913 15.2714 1.66448 15.3817C1.72513 15.4204 1.81605 15.4564 2.02068 15.4773C2.23643 15.4993 2.51865 15.5 2.95 15.5H13.15C13.5814 15.5 13.8636 15.4993 14.0793 15.4773C14.284 15.4564 14.3749 15.4204 14.4355 15.3817C14.6087 15.2714 14.7702 15.0811 14.8772 14.8186C14.9268 14.6969 14.962 14.5325 14.9807 14.2456C14.9997 13.9551 15 13.5823 15 13.05V5.35H1.1ZM15 4.25H1.1V4.05C1.1 3.51768 1.10027 3.14492 1.11927 2.85438C1.13802 2.56746 1.1732 2.40307 1.2228 2.28138C1.32979 2.01892 1.4913 1.82856 1.66448 1.71826C1.72513 1.67963 1.81605 1.6436 2.02068 1.6227C2.23643 1.60067 2.51865 1.6 2.95 1.6H13.15C13.5814 1.6 13.8636 1.60067 14.0793 1.6227C14.284 1.6436 14.3749 1.67963 14.4355 1.71826C14.6087 1.82856 14.7702 2.01892 14.8772 2.28138C14.9268 2.40307 14.962 2.56746 14.9807 2.85438C14.9997 3.14492 15 3.51768 15 4.05V4.25ZM3 12.3C3 11.9962 3.24624 11.75 3.55 11.75H6.55C6.85376 11.75 7.1 11.9962 7.1 12.3C7.1 12.6038 6.85376 12.85 6.55 12.85H3.55C3.24624 12.85 3 12.6038 3 12.3ZM9 12.3C9 11.9962 9.24624 11.75 9.55 11.75H12.55C12.8538 11.75 13.1 11.9962 13.1 12.3C13.1 12.6038 12.8538 12.85 12.55 12.85H9.55C9.24624 12.85 9 12.6038 9 12.3Z" fill="#3C4242"/>
</svg>
