<svg width="18" height="18" viewBox="0 0 18 18" fill="none" xmlns="http://www.w3.org/2000/svg">
<path fill-rule="evenodd" clip-rule="evenodd" d="M5.11821 2.27387e-07L6.25 4.65806e-07C6.66422 4.65806e-07 7 0.335787 7 0.75C7 1.16421 6.66422 1.5 6.25 1.5H5.15C4.36755 1.5 3.82582 1.50058 3.40488 1.53498C2.99269 1.56865 2.7628 1.63097 2.59202 1.71799C2.2157 1.90973 1.90973 2.2157 1.71799 2.59202C1.63097 2.7628 1.56865 2.99269 1.53498 3.40488C1.50058 3.82582 1.5 4.36755 1.5 5.15V12.85C1.5 13.6324 1.50058 14.1742 1.53498 14.5951C1.56865 15.0073 1.63097 15.2372 1.71799 15.408C1.90973 15.7843 2.2157 16.0903 2.59202 16.282C2.7628 16.369 2.99269 16.4313 3.40488 16.465C3.82582 16.4994 4.36755 16.5 5.15 16.5H6.25C6.66422 16.5 7 16.8358 7 17.25C7 17.6642 6.66422 18 6.25 18H5.11819C4.37511 18 3.77196 18 3.28273 17.96C2.77778 17.9188 2.32851 17.8312 1.91103 17.6185C1.25247 17.283 0.717035 16.7475 0.381478 16.089C0.168761 15.6715 0.0812138 15.2222 0.0399578 14.7173C-1.43163e-05 14.228 -7.81924e-06 13.6249 2.27387e-07 12.8818V5.11821C-7.81924e-06 4.37512 -1.43163e-05 3.77197 0.0399579 3.28273C0.081214 2.77778 0.168762 2.32851 0.381478 1.91103C0.717035 1.25247 1.25247 0.717034 1.91103 0.381478C2.32851 0.168761 2.77778 0.0812138 3.28273 0.0399578C3.77197 -1.43163e-05 4.37513 -7.81924e-06 5.11821 2.27387e-07ZM12.1363 3.88634C12.4292 3.59344 12.9041 3.59344 13.197 3.88634L17.7803 8.46967C18.0732 8.76256 18.0732 9.23744 17.7803 9.53033L13.197 14.1137C12.9041 14.4066 12.4292 14.4066 12.1363 14.1137C11.8434 13.8208 11.8434 13.3459 12.1363 13.053L15.4393 9.75H6.25C5.83579 9.75 5.5 9.41421 5.5 9C5.5 8.58579 5.83579 8.25 6.25 8.25H15.4393L12.1363 4.947C11.8434 4.6541 11.8434 4.17923 12.1363 3.88634Z" fill="#3C4242"/>
</svg>
