<svg width="20" height="16" viewBox="0 0 20 16" fill="none" xmlns="http://www.w3.org/2000/svg">
<path fill-rule="evenodd" clip-rule="evenodd" d="M10.0003 2.33325C6.60631 2.33325 3.67995 4.34218 2.34842 7.23904C2.1267 7.7214 2.1267 8.27843 2.34842 8.7608C3.67995 11.6577 6.60631 13.6666 10.0003 13.6666C13.3943 13.6666 16.3207 11.6577 17.6522 8.7608C17.8739 8.27844 17.8739 7.72141 17.6522 7.23904C16.3207 4.34218 13.3943 2.33325 10.0003 2.33325ZM0.9855 6.61258C2.55265 3.2031 5.99894 0.833252 10.0003 0.833252C14.0017 0.833252 17.448 3.20311 19.0151 6.61258C19.4196 7.49259 19.4196 8.50726 19.0151 9.38727C17.448 12.7967 14.0017 15.1666 10.0003 15.1666C5.99894 15.1666 2.55266 12.7967 0.9855 9.38726C0.581005 8.50725 0.581005 7.49259 0.9855 6.61258ZM10.0003 5.99992C8.89574 5.99992 8.00031 6.89535 8.00031 7.99992C8.00031 9.10449 8.89574 9.99992 10.0003 9.99992C11.1049 9.99992 12.0003 9.10449 12.0003 7.99992C12.0003 6.89535 11.1049 5.99992 10.0003 5.99992ZM6.50031 7.99992C6.50031 6.06692 8.06731 4.49992 10.0003 4.49992C11.9333 4.49992 13.5003 6.06692 13.5003 7.99992C13.5003 9.93291 11.9333 11.4999 10.0003 11.4999C8.06731 11.4999 6.50031 9.93291 6.50031 7.99992Z" fill="#3C4242"/>
</svg>
