<svg width="22" height="14" viewBox="0 0 22 14" fill="none" xmlns="http://www.w3.org/2000/svg">
<path d="M11.0001 4.25C10.2707 4.25 9.57126 4.53973 9.05554 5.05546C8.53981 5.57118 8.25008 6.27065 8.25008 7C8.25008 7.72935 8.53981 8.42882 9.05554 8.94454C9.57126 9.46027 10.2707 9.75 11.0001 9.75C11.7294 9.75 12.4289 9.46027 12.9446 8.94454C13.4603 8.42882 13.7501 7.72935 13.7501 7C13.7501 6.27065 13.4603 5.57118 12.9446 5.05546C12.4289 4.53973 11.7294 4.25 11.0001 4.25ZM11.0001 11.5833C9.78451 11.5833 8.61872 11.1004 7.75917 10.2409C6.89963 9.38136 6.41675 8.21558 6.41675 7C6.41675 5.78442 6.89963 4.61864 7.75917 3.75909C8.61872 2.89955 9.78451 2.41667 11.0001 2.41667C12.2157 2.41667 13.3814 2.89955 14.241 3.75909C15.1005 4.61864 15.5834 5.78442 15.5834 7C15.5834 8.21558 15.1005 9.38136 14.241 10.2409C13.3814 11.1004 12.2157 11.5833 11.0001 11.5833ZM11.0001 0.125C6.41675 0.125 2.50258 2.97583 0.916748 7C2.50258 11.0242 6.41675 13.875 11.0001 13.875C15.5834 13.875 19.4976 11.0242 21.0834 7C19.4976 2.97583 15.5834 0.125 11.0001 0.125Z" fill="#3C4242"/>
</svg>
