<svg width="18" height="16" viewBox="0 0 18 16" fill="none" xmlns="http://www.w3.org/2000/svg">
<path fill-rule="evenodd" clip-rule="evenodd" d="M8.99466 1.86766C7.23974 0.338136 4.64496 0.0255038 2.62981 1.74185C0.448969 3.59931 0.131469 6.7291 1.85675 8.94216C2.51124 9.78169 3.78857 11.0428 5.016 12.1977C6.25784 13.3662 7.49681 14.4703 8.10781 15.0097L8.11947 15.02C8.17691 15.0707 8.24843 15.1339 8.317 15.1854C8.39913 15.247 8.51687 15.3235 8.67397 15.3702C8.88277 15.4323 9.10715 15.4323 9.31595 15.3702C9.47305 15.3235 9.59079 15.247 9.67292 15.1854C9.74148 15.1339 9.813 15.0707 9.87044 15.02L9.8821 15.0097C10.4931 14.4703 11.7321 13.3662 12.9739 12.1977C14.2013 11.0428 15.4787 9.78169 16.1332 8.94216C17.8518 6.73763 17.5833 3.5837 15.3523 1.73529C13.3147 0.0471011 10.7476 0.337556 8.99466 1.86766ZM8.42578 3.41861C7.14725 1.92863 5.11332 1.59692 3.60242 2.88379C2.02569 4.22672 1.81417 6.44785 3.03974 8.01991C3.61196 8.75392 4.80422 9.93888 6.04389 11.1053C7.2017 12.1946 8.35984 13.23 8.99496 13.7919C9.63007 13.23 10.7882 12.1946 11.946 11.1053C13.1857 9.93888 14.378 8.75392 14.9502 8.01991C16.1824 6.43931 15.9865 4.20867 14.3953 2.89035C12.8444 1.60538 10.837 1.9352 9.56414 3.41861C9.42165 3.58466 9.21376 3.68021 8.99496 3.68021C8.77616 3.68021 8.56826 3.58466 8.42578 3.41861Z" fill="#3C4242"/>
</svg>
