<svg width="16" height="18" viewBox="0 0 16 18" fill="none" xmlns="http://www.w3.org/2000/svg">
<path fill-rule="evenodd" clip-rule="evenodd" d="M15.4167 12.3333C15.4167 12.7475 15.081 13.0833 14.6667 13.0833L13.7501 13.0833L13.7501 16.5C13.7501 16.9142 13.4143 17.25 13.0001 17.25C12.5859 17.25 12.2501 16.9142 12.2501 16.5L12.2501 13.0833L11.3334 13.0833C10.9192 13.0833 10.5834 12.7475 10.5834 12.3333C10.5834 11.9191 10.9192 11.5833 11.3334 11.5833L14.6667 11.5833C15.081 11.5833 15.4167 11.9191 15.4167 12.3333ZM13.0001 0.75C13.4143 0.75 13.7501 1.08579 13.7501 1.5L13.7501 9C13.7501 9.41421 13.4143 9.75 13.0001 9.75C12.5859 9.75 12.2501 9.41421 12.2501 9L12.2501 1.5C12.2501 1.08579 12.5859 0.75 13.0001 0.75ZM10.4167 5.66667C10.4167 6.08088 10.081 6.41667 9.66675 6.41667L6.33341 6.41667C5.9192 6.41667 5.58341 6.08088 5.58341 5.66667C5.58341 5.25245 5.9192 4.91667 6.33341 4.91667L7.25008 4.91667L7.25008 1.5C7.25008 1.08579 7.58587 0.75 8.00008 0.75C8.4143 0.75 8.75008 1.08579 8.75008 1.5L8.75008 4.91667L9.66675 4.91667C10.081 4.91667 10.4167 5.25245 10.4167 5.66667ZM8.00008 8.25C8.41429 8.25 8.75008 8.58579 8.75008 9L8.75008 16.5C8.75008 16.9142 8.41429 17.25 8.00008 17.25C7.58587 17.25 7.25008 16.9142 7.25008 16.5L7.25008 9C7.25008 8.58579 7.58587 8.25 8.00008 8.25ZM5.41675 12.3333C5.41675 12.7475 5.08096 13.0833 4.66675 13.0833L3.75008 13.0833L3.75008 16.5C3.75008 16.9142 3.41429 17.25 3.00008 17.25C2.58587 17.25 2.25008 16.9142 2.25008 16.5L2.25008 13.0833L1.33341 13.0833C0.919201 13.0833 0.583415 12.7475 0.583415 12.3333C0.583415 11.9191 0.919201 11.5833 1.33341 11.5833L4.66675 11.5833C5.08096 11.5833 5.41675 11.9191 5.41675 12.3333ZM3.00008 0.749999C3.4143 0.75 3.75008 1.08579 3.75008 1.5L3.75008 9C3.75008 9.41421 3.41429 9.75 3.00008 9.75C2.58587 9.75 2.25008 9.41421 2.25008 9L2.25008 1.5C2.25008 1.08579 2.58587 0.749999 3.00008 0.749999Z" fill="#3C4242"/>
</svg>
