<svg width="18" height="18" viewBox="0 0 18 18" fill="none" xmlns="http://www.w3.org/2000/svg">
<path fill-rule="evenodd" clip-rule="evenodd" d="M14.1834 1.1C13.5053 1.1 12.9556 1.64969 12.9556 2.32778C12.9556 3.00586 13.5053 3.55556 14.1834 3.55556C14.8615 3.55556 15.4112 3.00586 15.4112 2.32778C15.4112 1.64969 14.8615 1.1 14.1834 1.1ZM11.921 1.77778C12.1681 0.757623 13.0873 0 14.1834 0C15.469 0 16.5112 1.04218 16.5112 2.32778C16.5112 3.61337 15.469 4.65556 14.1834 4.65556C13.0873 4.65556 12.1681 3.89793 11.921 2.87778H5.2945C4.61641 2.87778 4.06672 3.42747 4.06672 4.10556V7.34979L5.78083 5.50857C5.98781 5.28624 6.33582 5.2738 6.55815 5.48078C6.78047 5.68776 6.79292 6.03577 6.58594 6.2581L4.23354 8.78494C3.84246 9.20502 3.19098 9.20502 2.79989 8.78494L0.447495 6.2581C0.240518 6.03577 0.252961 5.68775 0.475286 5.48078C0.697611 5.2738 1.04563 5.28624 1.25261 5.50857L2.96672 7.34979V4.10556C2.96672 2.81996 4.0089 1.77778 5.2945 1.77778H11.921ZM14.7334 9.75021L16.4475 11.5914C16.6545 11.8138 17.0025 11.8262 17.2248 11.6192C17.4471 11.4122 17.4596 11.0642 17.2526 10.8419L14.9002 8.31506C14.5091 7.89498 13.8576 7.89498 13.4666 8.31506L11.1142 10.8419C10.9072 11.0642 10.9196 11.4122 11.142 11.6192C11.3643 11.8262 11.7123 11.8138 11.9193 11.5914L13.6334 9.75021V12.9944C13.6334 13.6725 13.0837 14.2222 12.4056 14.2222H5.77914C5.53201 13.2021 4.61284 12.4444 3.51672 12.4444C2.23112 12.4444 1.18894 13.4866 1.18894 14.7722C1.18894 16.0578 2.23112 17.1 3.51672 17.1C4.61284 17.1 5.53201 16.3424 5.77914 15.3222H12.4056C13.6912 15.3222 14.7334 14.28 14.7334 12.9944V9.75021ZM3.51672 13.5444C2.83863 13.5444 2.28894 14.0941 2.28894 14.7722C2.28894 15.4503 2.83863 16 3.51672 16C4.1948 16 4.7445 15.4503 4.7445 14.7722C4.7445 14.0941 4.1948 13.5444 3.51672 13.5444Z" fill="#3C4242"/>
</svg>
