<svg width="16" height="18" viewBox="0 0 16 18" fill="none" xmlns="http://www.w3.org/2000/svg">
<path fill-rule="evenodd" clip-rule="evenodd" d="M7.99992 1.5C6.38909 1.5 5.08325 2.80584 5.08325 4.41667V5.5H10.9166V4.41667C10.9166 2.80584 9.61075 1.5 7.99992 1.5ZM12.4166 5.5091V4.41667C12.4166 1.97741 10.4392 0 7.99992 0C5.56066 0 3.58325 1.97741 3.58325 4.41667V5.5091C3.46553 5.51315 3.35493 5.51901 3.25138 5.52747C2.89929 5.55624 2.56321 5.61881 2.24378 5.78157C1.75769 6.02924 1.36249 6.42444 1.11482 6.91052C0.952058 7.22996 0.889489 7.56604 0.860721 7.91813C0.833231 8.25459 0.833241 8.6655 0.833252 9.15333V14.3467C0.833241 14.8345 0.833231 15.2454 0.860721 15.5819C0.889489 15.934 0.952058 16.27 1.11482 16.5895C1.36249 17.0756 1.75769 17.4708 2.24378 17.7184C2.56321 17.8812 2.89929 17.9438 3.25138 17.9725C3.58784 18 3.99874 18 4.48656 18H11.5133C12.0011 18 12.412 18 12.7485 17.9725C13.1005 17.9438 13.4366 17.8812 13.7561 17.7184C14.2421 17.4708 14.6373 17.0756 14.885 16.5895C15.0478 16.27 15.1103 15.934 15.1391 15.5819C15.1666 15.2454 15.1666 14.8345 15.1666 14.3466V9.15336C15.1666 8.66552 15.1666 8.2546 15.1391 7.91813C15.1103 7.56604 15.0478 7.22996 14.885 6.91052C14.6373 6.42444 14.2421 6.02924 13.7561 5.78157C13.4366 5.61881 13.1005 5.55624 12.7485 5.52747C12.6449 5.51901 12.5343 5.51315 12.4166 5.5091ZM3.37353 7.02249C3.1142 7.04368 2.9975 7.08102 2.92476 7.11808C2.72092 7.22194 2.55519 7.38767 2.45133 7.59151C2.41427 7.66425 2.37693 7.78095 2.35574 8.04028C2.33384 8.30836 2.33325 8.65758 2.33325 9.18333V14.3167C2.33325 14.8424 2.33384 15.1916 2.35574 15.4597C2.37693 15.7191 2.41427 15.8358 2.45133 15.9085C2.55519 16.1123 2.72092 16.2781 2.92476 16.3819C2.9975 16.419 3.1142 16.4563 3.37353 16.4775C3.64162 16.4994 3.99083 16.5 4.51659 16.5H11.4833C12.009 16.5 12.3582 16.4994 12.6263 16.4775C12.8856 16.4563 13.0023 16.419 13.0751 16.3819C13.2789 16.2781 13.4446 16.1123 13.5485 15.9085C13.5856 15.8358 13.6229 15.7191 13.6441 15.4597C13.666 15.1916 13.6666 14.8424 13.6666 14.3167V9.18333C13.6666 8.65758 13.666 8.30836 13.6441 8.04028C13.6229 7.78095 13.5856 7.66425 13.5485 7.59151C13.4446 7.38767 13.2789 7.22194 13.0751 7.11808C13.0023 7.08102 12.8856 7.04368 12.6263 7.02249C12.3582 7.00058 12.009 7 11.4833 7H4.51659C3.99083 7 3.64162 7.00058 3.37353 7.02249Z" fill="#3C4242"/>
</svg>
