<svg width="20" height="20" viewBox="0 0 20 20" fill="none" xmlns="http://www.w3.org/2000/svg">
<path fill-rule="evenodd" clip-rule="evenodd" d="M9.99992 1.58325C5.35152 1.58325 1.58325 5.35152 1.58325 9.99992C1.58325 14.6483 5.35152 18.4166 9.99992 18.4166C14.6483 18.4166 18.4166 14.6483 18.4166 9.99992C18.4166 5.35152 14.6483 1.58325 9.99992 1.58325ZM0.083252 9.99992C0.083252 4.5231 4.5231 0.083252 9.99992 0.083252C15.4767 0.083252 19.9166 4.5231 19.9166 9.99992C19.9166 15.4767 15.4767 19.9166 9.99992 19.9166C4.5231 19.9166 0.083252 15.4767 0.083252 9.99992ZM8.85893 6.61672C8.25138 6.19143 7.41659 6.62608 7.41659 7.36768V12.6322C7.41659 13.3738 8.25138 13.8084 8.85893 13.3831L12.6193 10.7509C13.1406 10.386 13.1406 9.61388 12.6193 9.24896L8.85893 6.61672ZM5.91659 7.36768C5.91659 5.41254 8.11741 4.26667 9.71912 5.38787L13.4795 8.02011C14.8539 8.98219 14.8539 11.0177 13.4795 11.9797L9.71912 14.612C8.11741 15.7332 5.91659 14.5873 5.91659 12.6322V7.36768Z" fill="#3C4242"/>
</svg>
