<svg width="16" height="16" viewBox="0 0 16 16" fill="none" xmlns="http://www.w3.org/2000/svg">
<path d="M7.9628 4.07508C5.81286 4.07508 4.07871 5.80923 4.07871 7.95917C4.07871 10.1091 5.81286 11.8433 7.9628 11.8433C10.1127 11.8433 11.8469 10.1091 11.8469 7.95917C11.8469 5.80923 10.1127 4.07508 7.9628 4.07508ZM7.9628 10.4843C6.57345 10.4843 5.43763 9.3519 5.43763 7.95917C5.43763 6.56644 6.57007 5.43401 7.9628 5.43401C9.35553 5.43401 10.488 6.56644 10.488 7.95917C10.488 9.3519 9.35214 10.4843 7.9628 10.4843V10.4843ZM12.9117 3.9162C12.9117 4.41988 12.5061 4.82215 12.0058 4.82215C11.5021 4.82215 11.0998 4.4165 11.0998 3.9162C11.0998 3.4159 11.5055 3.01025 12.0058 3.01025C12.5061 3.01025 12.9117 3.4159 12.9117 3.9162ZM15.4842 4.83567C15.4267 3.62211 15.1495 2.54714 14.2605 1.66147C13.3748 0.775804 12.2999 0.49861 11.0863 0.437763C9.83554 0.366774 6.08667 0.366774 4.83592 0.437763C3.62573 0.49523 2.55076 0.772423 1.66172 1.65809C0.772668 2.54376 0.498854 3.61873 0.438007 4.83229C0.367018 6.08305 0.367018 9.83192 0.438007 11.0827C0.495474 12.2962 0.772668 13.3712 1.66172 14.2569C2.55076 15.1425 3.62235 15.4197 4.83592 15.4806C6.08667 15.5516 9.83554 15.5516 11.0863 15.4806C12.2999 15.4231 13.3748 15.1459 14.2605 14.2569C15.1462 13.3712 15.4234 12.2962 15.4842 11.0827C15.5552 9.83192 15.5552 6.08643 15.4842 4.83567V4.83567ZM13.8684 12.4247C13.6047 13.0873 13.0943 13.5977 12.4283 13.8647C11.4311 14.2603 9.06481 14.169 7.9628 14.169C6.86078 14.169 4.49112 14.2569 3.49728 13.8647C2.83472 13.6011 2.32428 13.0906 2.05722 12.4247C1.66172 11.4275 1.75299 9.06119 1.75299 7.95917C1.75299 6.85716 1.6651 4.48749 2.05722 3.49365C2.32089 2.83109 2.83134 2.32065 3.49728 2.0536C4.4945 1.65809 6.86078 1.74936 7.9628 1.74936C9.06481 1.74936 11.4345 1.66147 12.4283 2.0536C13.0909 2.31727 13.6013 2.82771 13.8684 3.49365C14.2639 4.49087 14.1726 6.85716 14.1726 7.95917C14.1726 9.06119 14.2639 11.4309 13.8684 12.4247Z" fill="#2A2F2F"/>
</svg>
