<svg width="14" height="14" viewBox="0 0 14 14" fill="none" xmlns="http://www.w3.org/2000/svg">
<path d="M8.22844 6.05327V13.1538H5.82544V4.12586H8.07825L8.22844 6.05327ZM7.878 8.32277H7.22719C7.22719 7.65527 7.31341 7.05452 7.48585 6.52052C7.65828 5.98095 7.90025 5.52205 8.21175 5.1438C8.52325 4.75998 8.89316 4.46795 9.32147 4.2677C9.75535 4.06189 10.2393 3.95898 10.7733 3.95898C11.196 3.95898 11.5826 4.02017 11.9331 4.14255C12.2835 4.26492 12.5839 4.45961 12.8342 4.72661C13.0901 4.99361 13.2848 5.34683 13.4183 5.78627C13.5573 6.2257 13.6268 6.76248 13.6268 7.39661V13.1538H11.2072V7.38827C11.2072 6.98777 11.1515 6.67627 11.0403 6.45377C10.929 6.23127 10.7649 6.07552 10.548 5.98652C10.3366 5.89195 10.0752 5.84467 9.76369 5.84467C9.44106 5.84467 9.16016 5.90864 8.92097 6.03658C8.68735 6.16452 8.49266 6.34252 8.33691 6.57058C8.18672 6.79308 8.07269 7.05452 7.99481 7.35489C7.91694 7.65527 7.878 7.97789 7.878 8.32277Z" fill="#2A2F2F"/>
<path d="M3.54786 4.12577V13.1537H1.13652V4.12577H3.54786ZM0.986328 1.77283C0.986328 1.42239 1.1087 1.13314 1.35345 0.905082C1.5982 0.67702 1.92639 0.562988 2.33802 0.562988C2.74408 0.562988 3.06948 0.67702 3.31423 0.905082C3.56455 1.13314 3.6897 1.42239 3.6897 1.77283C3.6897 2.12327 3.56455 2.41252 3.31423 2.64058C3.06948 2.86865 2.74408 2.98268 2.33802 2.98268C1.92639 2.98268 1.5982 2.86865 1.35345 2.64058C1.1087 2.41252 0.986328 2.12327 0.986328 1.77283Z" fill="#2A2F2F"/>
</svg>
