<svg width="18" height="15" viewBox="0 0 18 15" fill="none" xmlns="http://www.w3.org/2000/svg">
<path d="M15.6055 3.58016C15.6165 3.7339 15.6165 3.88767 15.6165 4.04141C15.6165 8.73072 12.0473 14.1339 5.52399 14.1339C3.51427 14.1339 1.64734 13.5518 0.0769043 12.5415C0.362447 12.5744 0.63697 12.5854 0.9335 12.5854C2.59176 12.5854 4.11828 12.0254 5.33729 11.0699C3.77784 11.037 2.47098 10.0156 2.02071 8.60993C2.24037 8.64286 2.45999 8.66483 2.69064 8.66483C3.0091 8.66483 3.32761 8.62089 3.6241 8.54405C1.99877 8.21456 0.779725 6.78691 0.779725 5.06274V5.01883C1.25193 5.2824 1.80108 5.44712 2.38309 5.46906C1.42765 4.83209 0.801698 3.74488 0.801698 2.51489C0.801698 1.85598 0.977378 1.25197 1.28489 0.724827C3.03104 2.8773 5.65576 4.28298 8.59891 4.43675C8.54402 4.17318 8.51106 3.89866 8.51106 3.6241C8.51106 1.66928 10.0925 0.0769043 12.0583 0.0769043C13.0796 0.0769043 14.0021 0.505202 14.65 1.19707C15.4517 1.04333 16.2204 0.7468 16.9013 0.340475C16.6377 1.16415 16.0777 1.85601 15.3419 2.29526C16.0557 2.21843 16.7476 2.02071 17.3845 1.74618C16.9014 2.449 16.2974 3.07496 15.6055 3.58016Z" fill="#2A2F2F"/>
</svg>
