<svg width="16" height="16" viewBox="0 0 16 16" fill="none" xmlns="http://www.w3.org/2000/svg">
<path fill-rule="evenodd" clip-rule="evenodd" d="M6.83334 1.75C4.02589 1.75 1.75 4.02589 1.75 6.83334C1.75 9.64078 4.02589 11.9167 6.83334 11.9167C9.64078 11.9167 11.9167 9.64078 11.9167 6.83334C11.9167 4.02589 9.64078 1.75 6.83334 1.75ZM0.25 6.83334C0.25 3.19746 3.19746 0.25 6.83334 0.25C10.4692 0.25 13.4167 3.19746 13.4167 6.83334C13.4167 8.38105 12.8826 9.80402 11.9887 10.928L15.697 14.6363C15.9899 14.9292 15.9899 15.4041 15.697 15.697C15.4041 15.9899 14.9292 15.9899 14.6363 15.697L10.928 11.9887C9.80402 12.8826 8.38105 13.4167 6.83334 13.4167C3.19746 13.4167 0.25 10.4692 0.25 6.83334Z" fill="#3C4242"/>
</svg>
