<svg width="18" height="18" viewBox="0 0 18 18" fill="none" xmlns="http://www.w3.org/2000/svg">
<path fill-rule="evenodd" clip-rule="evenodd" d="M4.66727 0.107647C4.99577 -0.0859665 5.42072 -0.0135102 5.66431 0.285583C7.24479 2.22623 10.2552 2.22623 11.8357 0.285582C12.0793 -0.0135095 12.5043 -0.085967 12.8328 0.107647L12.5535 0.581473M4.99373 1.19208L1.91174 3.00855C1.46465 3.27206 1.23313 3.77239 1.31707 4.26712L1.83393 7.31343C1.83544 7.32232 1.8376 7.32465 1.83868 7.32582L1.83882 7.32597C1.84138 7.32876 1.84775 7.33391 1.85866 7.33735C1.86956 7.34078 1.87929 7.34067 1.88575 7.33926C1.8902 7.3383 1.89626 7.33631 1.9052 7.32753C2.61012 6.63509 3.84759 7.10546 3.84759 8.12962V14.7647C3.84759 15.4377 4.40576 16 5.11506 16H12.385C13.0943 16 13.6524 15.4377 13.6524 14.7647V8.12962C13.6524 7.10546 14.8899 6.63509 15.5948 7.32753C15.6038 7.33631 15.6098 7.3383 15.6143 7.33926C15.6207 7.34067 15.6305 7.34078 15.6414 7.33735C15.6523 7.33391 15.6586 7.32876 15.6612 7.32597L15.6613 7.32582C15.6624 7.32465 15.6646 7.32232 15.6661 7.31343L16.183 4.26712C16.2669 3.77239 16.0354 3.27206 15.5883 3.00855L12.5063 1.19208C10.5069 3.39073 6.99316 3.39073 4.99373 1.19208ZM4.66727 0.107647L1.35321 2.0609ZM12.8328 0.107647L16.1468 2.0609C16.9802 2.55209 17.429 3.49895 17.2675 4.45112L16.7506 7.49744C16.5952 8.41315 15.471 8.74785 14.824 8.11226C14.8174 8.10583 14.8128 8.10315 14.8106 8.10202C14.8082 8.1008 14.8058 8.10001 14.803 8.09953C14.7967 8.09846 14.786 8.09879 14.7739 8.10374C14.7617 8.10869 14.7559 8.11503 14.7544 8.11708C14.7539 8.11784 14.7537 8.11819 14.7536 8.11864L14.7536 8.11865C14.7535 8.11899 14.7524 8.12217 14.7524 8.12962V14.7647C14.7524 16.0636 13.6832 17.1 12.385 17.1H5.11506C3.81684 17.1 2.74759 16.0636 2.74759 14.7647V8.12962C2.74759 8.12218 2.74655 8.119 2.74644 8.11865L2.74643 8.11863C2.74629 8.11819 2.74615 8.11784 2.74561 8.11708C2.74414 8.11503 2.73835 8.10869 2.72617 8.10374C2.71402 8.09879 2.70332 8.09846 2.697 8.09953C2.69419 8.10001 2.69182 8.1008 2.68942 8.10202C2.68718 8.10315 2.6826 8.10583 2.67604 8.11226C2.02901 8.74785 0.904797 8.41315 0.74943 7.49744L0.232566 4.45112C0.071011 3.49895 0.519819 2.55209 1.35321 2.0609" fill="#3C4242"/>
</svg>
