<svg width="14" height="18" viewBox="0 0 14 18" fill="none" xmlns="http://www.w3.org/2000/svg">
<path fill-rule="evenodd" clip-rule="evenodd" d="M4.08341 5.58333L2.75008 5.58333V13.8333C2.75008 14.3124 2.75066 14.6266 2.7703 14.8669C2.78922 15.0985 2.82201 15.1946 2.84999 15.2495C2.93788 15.422 3.07811 15.5622 3.25059 15.6501C3.3055 15.6781 3.40162 15.7109 3.63316 15.7298C3.87345 15.7494 4.18766 15.75 4.66675 15.75H9.33342C9.8125 15.75 10.1267 15.7494 10.367 15.7298C10.5985 15.7109 10.6947 15.6781 10.7496 15.6501C10.9221 15.5622 11.0623 15.422 11.1502 15.2495C11.1781 15.1946 11.2109 15.0985 11.2299 14.8669C11.2495 14.6266 11.2501 14.3124 11.2501 13.8333V5.58333H9.9176C9.91732 5.58333 9.91789 5.58333 9.9176 5.58333C9.91732 5.58333 9.91618 5.58333 9.91589 5.58333L4.08341 5.58333ZM10.6657 4.08333H12.8334C13.2476 4.08333 13.5834 4.41912 13.5834 4.83333C13.5834 5.24755 13.2476 5.58333 12.8334 5.58333H12.7501V13.8628C12.7501 14.3044 12.7501 14.6804 12.7249 14.9891C12.6984 15.3134 12.6404 15.6289 12.4867 15.9305C12.255 16.3852 11.8853 16.7549 11.4306 16.9866C11.1289 17.1403 10.8135 17.1983 10.4892 17.2248C10.1805 17.25 9.80446 17.25 9.36289 17.25H4.63727C4.1957 17.25 3.81971 17.25 3.51101 17.2248C3.18671 17.1983 2.87121 17.1403 2.5696 16.9866C2.11488 16.7549 1.74518 16.3852 1.51348 15.9305C1.3598 15.6289 1.30178 15.3134 1.27528 14.9891C1.25006 14.6804 1.25007 14.3044 1.25008 13.8628L1.25008 5.58333H1.16675C0.752534 5.58333 0.416748 5.24755 0.416748 4.83333C0.416748 4.41912 0.752534 4.08333 1.16675 4.08333H3.33446C3.38228 2.17616 5.06776 0.75 7.00008 0.75C8.93241 0.75 10.6179 2.17616 10.6657 4.08333ZM4.83552 4.08333C4.88428 3.11928 5.77402 2.25 7.00008 2.25C8.22614 2.25 9.11588 3.11928 9.16464 4.08333H4.83552ZM5.33342 6.58333C5.74763 6.58333 6.08342 6.91912 6.08342 7.33333V14C6.08342 14.4142 5.74763 14.75 5.33342 14.75C4.9192 14.75 4.58342 14.4142 4.58342 14V7.33333C4.58342 6.91912 4.9192 6.58333 5.33342 6.58333ZM8.66675 6.58333C9.08096 6.58333 9.41675 6.91912 9.41675 7.33333V14C9.41675 14.4142 9.08096 14.75 8.66675 14.75C8.25253 14.75 7.91675 14.4142 7.91675 14V7.33333C7.91675 6.91912 8.25253 6.58333 8.66675 6.58333Z" fill="#3C4242"/>
</svg>
