<svg width="20" height="16" viewBox="0 0 20 16" fill="none" xmlns="http://www.w3.org/2000/svg">
<path fill-rule="evenodd" clip-rule="evenodd" d="M1.2001 1.1V12.1333H1.96161C2.20223 11.0746 3.12229 10.2667 4.2501 10.2667C5.37791 10.2667 6.29797 11.0746 6.53859 12.1333H10.9001V1.1H1.2001ZM12.0001 2.8V1.01667C12.0001 0.474201 11.5711 0 11.0001 0H1.1001C0.529131 0 0.100098 0.474203 0.100098 1.01667V12.2167C0.100098 12.7591 0.529131 13.2333 1.1001 13.2333H1.96161C2.20223 14.2921 3.12229 15.1 4.2501 15.1C5.37791 15.1 6.29797 14.2921 6.53859 13.2333H11.0001C11.1641 13.2333 11.3163 13.1942 11.4501 13.1256C11.5839 13.1942 11.7361 13.2333 11.9001 13.2333H12.7616C13.0022 14.2921 13.9223 15.1 15.0501 15.1C16.1779 15.1 17.098 14.2921 17.3386 13.2333H18.2001C18.7711 13.2333 19.2001 12.7591 19.2001 12.2167V7.27663C19.2001 7.01332 19.0994 6.75695 18.9142 6.56488L15.5778 3.10491C15.3919 2.91216 15.1355 2.8 14.8637 2.8H12.0001ZM12.0001 3.9V12.1333H12.7616C13.0022 11.0746 13.9223 10.2667 15.0501 10.2667C16.1779 10.2667 17.098 11.0746 17.3386 12.1333H18.1001V7.30531L14.8164 3.9H12.0001ZM4.2501 11.3667C3.57842 11.3667 3.0001 11.9371 3.0001 12.6833C3.0001 13.4295 3.57842 14 4.2501 14C4.92177 14 5.5001 13.4295 5.5001 12.6833C5.5001 11.9371 4.92177 11.3667 4.2501 11.3667ZM15.0501 11.3667C14.3784 11.3667 13.8001 11.9371 13.8001 12.6833C13.8001 13.4295 14.3784 14 15.0501 14C15.7218 14 16.3001 13.4295 16.3001 12.6833C16.3001 11.9371 15.7218 11.3667 15.0501 11.3667Z" fill="#3C4242"/>
</svg>
