<svg width="16" height="16" viewBox="0 0 16 16" fill="none" xmlns="http://www.w3.org/2000/svg">
<path fill-rule="evenodd" clip-rule="evenodd" d="M7.99992 2.08325C6.11295 2.08325 4.58325 3.61295 4.58325 5.49992C4.58325 7.38689 6.11295 8.91658 7.99992 8.91658C9.88689 8.91658 11.4166 7.38689 11.4166 5.49992C11.4166 3.61295 9.88689 2.08325 7.99992 2.08325ZM10.993 9.40091C12.1627 8.50212 12.9166 7.08906 12.9166 5.49992C12.9166 2.78452 10.7153 0.583252 7.99992 0.583252C5.28452 0.583252 3.08325 2.78452 3.08325 5.49992C3.08325 7.08906 3.83718 8.50212 5.00688 9.40091C4.20026 9.67533 3.4657 10.0587 2.83587 10.5311C1.48738 11.5424 0.583252 12.9969 0.583252 14.6666C0.583252 15.0808 0.919038 15.4166 1.33325 15.4166C1.74747 15.4166 2.08325 15.0808 2.08325 14.6666C2.08325 13.5749 2.67151 12.5293 3.73587 11.7311C4.80046 10.9326 6.30556 10.4166 7.99992 10.4166C9.69428 10.4166 11.1994 10.9326 12.264 11.7311C13.3283 12.5293 13.9166 13.5749 13.9166 14.6666C13.9166 15.0808 14.2524 15.4166 14.6666 15.4166C15.0808 15.4166 15.4166 15.0808 15.4166 14.6666C15.4166 12.9969 14.5125 11.5424 13.164 10.5311C12.5341 10.0587 11.7996 9.67533 10.993 9.40091Z" fill="#3C4242"/>
</svg>
