<svg width="101" height="50" viewBox="0 0 101 50" fill="none" xmlns="http://www.w3.org/2000/svg">
<g filter="url(#filter0_d_307_1427)">
<path d="M7.8923 27.3907C8.15842 27.3408 8.45781 27.3076 8.79046 27.3076C8.84036 25.5611 9.83831 22.6671 10.9028 19.6732C9.90484 19.5235 9.05658 19.5235 8.54097 19.8728C8.17505 18.4257 9.55556 18.143 11.4517 18.1763C12.433 15.3986 13.3811 12.6875 13.5807 10.8745C12.0006 10.7747 10.6034 10.9411 9.72189 11.939C9.43913 12.2384 8.67403 8.46282 12.1336 7.83078C14.9445 7.31517 20.9323 9.61047 22.8117 6.96588C23.0945 6.58333 23.3274 10.0429 21.4479 10.9743C20.2503 11.5565 18.6702 11.49 17.0236 11.2904C16.7907 12.8871 15.9258 15.5317 15.0277 18.4091C16.9903 18.5422 18.7201 18.5255 19.086 17.5941C19.6682 21.0703 17.1899 20.9539 14.4289 20.3884C13.6638 22.9498 12.9486 25.5445 12.6825 27.6568C15.0942 27.9396 17.5059 28.0394 18.5704 26.5258C18.8532 26.1433 19.086 29.6029 17.2066 30.5177C13.9133 32.1476 7.8424 28.8211 5.48057 31.4823C5.19782 31.7817 4.43272 28.0061 7.8923 27.3907ZM21.9136 17.1617C21.897 17.0951 25.5894 16.7625 25.5229 18.8915C25.473 20.2553 22.2795 27.241 22.9448 29.4864C24.5748 27.4074 28.9159 17.1617 28.9159 17.1617C28.8993 17.0951 32.5917 16.7625 32.5086 18.8915C32.4587 20.272 29.6644 25.8439 29.9471 29.5862C31.2278 28.239 32.7747 24.5299 33.0574 23.8313C33.0907 23.7648 33.1572 23.7316 33.2238 23.7316C33.3568 23.7316 33.44 23.848 33.4067 23.9644C33.0075 25.1952 31.3443 30.2682 30.4794 30.7838C29.4814 31.3992 26.7703 30.368 26.5208 29.2369C26.0385 27.1412 28.0677 22.1515 28.7496 19.141C27.419 22.6172 24.3419 30.4179 23.2775 30.8836C22.2961 31.2994 19.6349 30.4511 19.4187 29.1205C19.0195 26.7088 22.4292 19.0911 21.9136 17.1617ZM29.3151 38.9171C28.6332 34.7257 34.9868 20.6213 34.3215 17.1284C34.3049 17.0619 38.147 17.1284 37.9142 19.2407C37.6979 21.2533 34.8371 29.187 33.4899 35.0916C35.9016 26.1433 40.5421 17.6773 41.2573 17.2615C41.906 16.8789 43.9019 17.4444 44.7169 18.8748C45.8146 20.8042 43.4861 30.1185 39.6273 30.9002C38.7624 31.0832 36.7166 29.8025 36.3008 29.2868C34.8704 32.9626 33.5398 37.0709 32.9077 40.8631C32.8246 41.2623 29.5978 40.6469 29.3151 38.9171ZM41.6066 18.3093C41.3904 18.2262 38.8289 22.8667 36.4837 28.8045C39.5608 30.5343 42.3883 18.6253 41.6066 18.3093ZM44.3842 28.9875C43.7023 24.7794 50.1391 10.1926 49.7067 7.08231C49.69 7.01578 53.2162 7.19874 52.9833 9.31108C52.7504 11.49 49.374 20.6712 48.243 26.6589C49.8564 22.6671 52.6673 16.9621 54.2806 17.1118C55.2121 17.1949 57.0915 18.0765 57.2579 18.642C57.7236 20.2054 54.4636 27.3408 54.3971 29.7027C55.6944 28.4552 57.3244 24.5465 57.6072 23.8313C57.6404 23.7648 57.707 23.7316 57.7735 23.7316C57.9065 23.7316 57.9897 23.848 57.9564 23.9644C57.5573 25.1952 55.7277 30.8337 54.9958 30.9335C53.5488 31.1331 51.1038 30.0852 50.9042 28.7712C50.6547 26.9915 53.4989 21.22 53.7817 18.4257C52.95 18.2927 47.9436 28.3055 47.9769 30.8836C48.0767 31.3493 44.6836 30.7505 44.3842 28.9875ZM57.4076 28.7546C56.4262 25.977 58.655 19.0245 61.1665 17.4112C62.0314 16.8457 64.3766 16.9953 65.1251 17.4943C65.7738 17.9101 65.358 18.3093 65.358 18.3093C62.6468 17.0452 59.4534 28.8211 60.7008 29.9688C62.1479 31.2994 65.5908 20.405 63.5117 19.9726C63.5117 19.9726 64.4764 18.6087 65.3081 18.7085C68.1855 19.0911 66.0066 28.871 61.9815 30.7671C60.8838 31.2828 58.2725 31.183 57.4076 28.7546ZM66.1231 29.1538C65.6906 26.5092 68.9672 19.0578 68.435 17.1284C68.4184 17.0619 72.3104 16.7625 72.2439 18.8915C72.194 20.089 70.0816 24.4468 69.7157 28.0228C70.9798 24.0975 73.8739 16.9454 75.6702 17.1118C76.6016 17.1949 78.2316 17.96 78.3979 18.5089C78.6141 19.2407 76.3854 22.7336 76.9841 24.8958C72.0276 24.6796 75.2377 19.0744 75.1712 18.4257C74.3396 18.2927 69.882 28.2057 69.8987 30.8004C69.9153 30.9002 69.7989 30.9667 69.7157 30.9501C69.0005 30.8669 66.3393 30.4844 66.1231 29.1538ZM83.3544 16.8623C78.5975 16.2302 81.6246 13.5524 81.4251 11.7893C86.5812 12.621 82.9386 14.4007 83.3544 16.8623ZM76.9675 29.1538C76.5018 26.609 79.9281 19.0578 79.4125 17.1284C79.3959 17.0619 83.2546 16.7625 83.1881 18.8915C83.1382 20.272 80.3772 25.7607 80.6101 29.5031C81.8741 28.0893 83.3711 24.5133 83.6538 23.8313C83.6705 23.7648 83.737 23.7316 83.8201 23.7316C83.9366 23.7316 84.0197 23.848 83.9865 23.9644C83.6039 25.1952 81.791 30.5177 80.9926 30.9002C80.1776 31.2661 77.1837 30.4012 76.9675 29.1538ZM86.9138 30.8836C86.315 31.2994 83.6206 30.5676 83.0052 29.4532C82.2068 28.0228 84.2027 20.7709 86.0323 18.4257C87.4627 16.6128 90.5564 17.0619 91.2882 17.4943C91.4712 17.5941 91.5377 17.6939 91.4379 17.9767C91.3215 18.2927 91.0886 18.2262 90.7227 18.1264C88.8598 17.644 86.0656 27.8564 86.2485 29.9355L92.1864 17.2947C92.3859 16.7459 95.9121 17.6606 95.5794 18.3592C95.2468 19.0578 92.8184 27.3408 92.7519 29.7027C94.0492 28.4552 95.6958 24.5465 95.9786 23.8313C96.0119 23.7648 96.0784 23.7316 96.1449 23.7316C96.2613 23.7316 96.3611 23.848 96.3112 23.9644C95.9287 25.1952 94.0991 30.8337 93.3673 30.9335C91.9036 31.1331 89.4586 30.0852 89.2756 28.7712C89.1093 27.6568 90.0241 24.2139 90.8724 21.3864C89.4087 25.1786 87.2465 30.6507 86.9138 30.8836Z" fill="#3C4242"/>
<path d="M5 33.6259H27.4033" stroke="#333333" stroke-width="0.420324" stroke-miterlimit="10" stroke-linecap="round" stroke-linejoin="round"/>
<path d="M36.9856 33.6259H96.036" stroke="#3C4242" stroke-width="0.420324" stroke-miterlimit="10" stroke-linecap="round" stroke-linejoin="round"/>
<path d="M44.9505 41.2617C44.7869 41.2617 44.5979 41.1972 44.3821 41.0689C44.167 40.9398 43.9381 40.7693 43.6969 40.5565C43.4557 40.3438 43.2183 40.1126 42.9841 39.8621C42.7506 39.6125 42.5347 39.3636 42.3381 39.1155C42.1414 38.8682 41.9763 38.6477 41.8426 38.4549L40.7626 40.7862C40.7104 40.8999 40.629 40.9805 40.5176 41.0274C40.4062 41.0743 40.2856 41.1027 40.1558 41.1127C40.026 41.1227 39.8977 41.1273 39.7717 41.1273C39.8677 40.989 39.9668 40.83 40.0667 40.6518C40.1673 40.4736 40.2856 40.2585 40.4231 40.0058C40.5606 39.7531 40.7219 39.4466 40.9078 39.0848C41.0937 38.7238 41.3141 38.2913 41.5707 37.789C41.8265 37.2866 42.1291 36.6967 42.4786 36.0184C42.5009 35.9785 42.5309 35.9232 42.5677 35.8517C42.6046 35.7803 42.6238 35.7142 42.6238 35.6551C42.6238 35.6005 42.6054 35.5575 42.5677 35.5253C42.5309 35.493 42.4602 35.4769 42.3565 35.4769C42.1783 35.4769 42.0055 35.5253 41.8388 35.6213C41.6721 35.7173 41.5231 35.8402 41.3933 35.9892C41.2634 36.1375 41.1613 36.2911 41.0868 36.4493C41.0123 36.6076 40.9754 36.7489 40.9754 36.8726C40.9754 36.967 40.9938 37.0508 41.0307 37.1253C40.7857 37.1253 40.6128 37.0846 40.513 37.0032C40.4124 36.9217 40.3624 36.8211 40.3624 36.702C40.3624 36.5338 40.4362 36.3656 40.5852 36.1974C40.7334 36.0292 40.9247 35.874 41.159 35.7334C41.3933 35.5921 41.6383 35.4799 41.8941 35.3954C42.1499 35.3117 42.3819 35.2695 42.59 35.2695C42.7905 35.2695 42.9257 35.3063 42.9964 35.3809C43.067 35.4554 43.1024 35.5368 43.1024 35.6259C43.1024 35.6804 43.0931 35.735 43.0747 35.7895C43.0563 35.844 43.0355 35.8963 43.0133 35.9454L42.0777 37.9649C42.1814 37.8658 42.3173 37.7744 42.484 37.6899C42.6507 37.6061 42.835 37.5094 43.0355 37.4003C43.3697 37.2221 43.7276 37.0139 44.1102 36.7766C44.4927 36.5392 44.8583 36.2888 45.207 36.0268C45.5558 35.7641 45.8454 35.5122 46.0758 35.2695C46.1127 35.2994 46.1388 35.3509 46.1542 35.4254C46.1688 35.4999 46.1764 35.5568 46.1764 35.5959C46.1764 35.7496 46.082 35.9178 45.8922 36.1006C45.7025 36.2834 45.4559 36.4731 45.1517 36.6682C44.8476 36.8641 44.5134 37.0569 44.1493 37.2474C43.7852 37.4379 43.4273 37.6177 43.0747 37.7859C42.7221 37.9541 42.4041 38.1 42.1222 38.2237C42.345 38.4764 42.5624 38.7161 42.7736 38.9442C42.9848 39.1716 43.2153 39.3944 43.4642 39.6125C43.713 39.8307 44.0041 40.0534 44.3383 40.2808C44.6724 40.5081 45.0772 40.7532 45.5519 41.0159C45.4997 41.0804 45.4183 41.1372 45.3069 41.1864C45.1955 41.2371 45.0765 41.2617 44.9505 41.2617Z" fill="#3C4242"/>
<path d="M50.9091 40.9796C50.4559 40.9796 50.1203 40.8882 49.9013 40.7046C49.6824 40.5218 49.5726 40.3013 49.5726 40.044C49.253 40.3259 48.8859 40.5464 48.4703 40.7046C48.0547 40.8628 47.6346 40.9419 47.2121 40.9419C46.7589 40.9419 46.4194 40.859 46.1928 40.6931C45.9662 40.5272 45.8533 40.3228 45.8533 40.0809C45.8533 39.8581 45.937 39.6231 46.1037 39.3757C46.2711 39.1284 46.4939 38.8956 46.772 38.6775C47.05 38.4601 47.3565 38.2827 47.6907 38.1467C48.0248 38.0107 48.3551 37.9424 48.6823 37.9424C48.8528 37.9424 49.0111 37.9723 49.1555 38.0315C49.3007 38.0906 49.3729 38.212 49.3729 38.3956C49.3729 38.5838 49.2891 38.7604 49.1225 38.9264C48.9558 39.0923 48.7361 39.2398 48.4657 39.368C48.1945 39.4971 47.8973 39.6016 47.5747 39.6837C47.252 39.7659 46.9302 39.8159 46.6114 39.8358C46.5968 39.8858 46.5853 39.9326 46.5776 39.9772C46.5699 40.0217 46.5661 40.064 46.5661 40.1031C46.5661 40.2022 46.5922 40.2998 46.6445 40.3966C46.6959 40.4934 46.785 40.5725 46.9118 40.6339C47.0377 40.6961 47.2159 40.7269 47.4464 40.7269C47.8397 40.7269 48.2299 40.6339 48.6163 40.4488C49.0019 40.2629 49.3398 40.034 49.6294 39.7621C49.6962 39.5593 49.8153 39.3565 49.9858 39.153C50.1564 38.9502 50.363 38.7658 50.6042 38.5999C50.8454 38.434 51.1073 38.3003 51.3892 38.1989C51.6711 38.0975 51.9576 38.0468 52.2472 38.0468C52.4178 38.0468 52.576 38.0768 52.7204 38.136C52.8648 38.1951 52.9378 38.3165 52.9378 38.5C52.9378 38.7528 52.8095 38.974 52.5537 39.1645C52.2979 39.355 51.9692 39.5071 51.5682 39.6215C51.1672 39.7352 50.7555 39.8074 50.3323 39.8366C50.3177 39.8865 50.3061 39.9334 50.2985 39.9779C50.2908 40.0225 50.2869 40.0647 50.2869 40.1039C50.2869 40.203 50.3108 40.3044 50.3591 40.4081C50.4075 40.5118 50.4928 40.5971 50.6149 40.6639C50.7378 40.7307 50.9137 40.7637 51.1442 40.7637C51.4637 40.7637 51.7825 40.7008 52.102 40.5748C52.4216 40.4488 52.7181 40.2829 52.9931 40.077C53.2681 39.8719 53.4978 39.6499 53.6836 39.4126L53.8173 39.4794C53.6168 39.7767 53.3587 40.0379 53.043 40.2629C52.7273 40.488 52.3863 40.6639 52.0183 40.7899C51.6496 40.9166 51.2801 40.9796 50.9091 40.9796ZM46.666 39.6945C46.8664 39.6499 47.093 39.5847 47.345 39.4979C47.5977 39.4111 47.8404 39.3089 48.0747 39.1898C48.309 39.0708 48.5018 38.9402 48.6539 38.7965C48.806 38.6529 48.882 38.5024 48.882 38.3434C48.882 38.2888 48.8674 38.2466 48.8375 38.2174C48.8075 38.1874 48.7445 38.1728 48.6485 38.1728C48.4703 38.1728 48.2806 38.2189 48.0801 38.3103C47.8796 38.4017 47.6868 38.5216 47.5009 38.6706C47.315 38.8188 47.1483 38.9824 46.9993 39.1606C46.8511 39.3381 46.7397 39.5163 46.666 39.6945ZM50.386 39.6945C50.5865 39.6499 50.8054 39.5908 51.0436 39.5163C51.2809 39.4418 51.5075 39.3542 51.7234 39.2528C51.9384 39.1514 52.1166 39.0354 52.258 38.9041C52.3985 38.7727 52.4692 38.6283 52.4692 38.4701C52.4692 38.4156 52.4508 38.3695 52.4131 38.3326C52.3763 38.2957 52.3094 38.2773 52.2127 38.2773C51.9753 38.2773 51.7356 38.3464 51.4945 38.4855C51.2533 38.6237 51.0343 38.8012 50.8369 39.0162C50.6403 39.2305 50.4897 39.4571 50.386 39.6945Z" fill="#3C4242"/>
<path d="M52.7478 42.6948C52.6886 42.6948 52.631 42.6741 52.5749 42.6319C52.5189 42.5896 52.4766 42.5451 52.4466 42.4982C52.4167 42.4513 52.4021 42.4229 52.4021 42.4129C52.5058 42.1702 52.608 41.9536 52.7086 41.7631C52.8092 41.5726 52.9091 41.3767 53.0097 41.1762C53.1095 40.9758 53.2086 40.7407 53.3047 40.4711C53.4014 40.2015 53.5013 39.8658 53.6058 39.4648C53.7095 39.0639 53.8139 38.5661 53.9176 37.9724C53.9253 37.9278 53.9399 37.8955 53.9622 37.8756C53.9845 37.8556 54.0398 37.8456 54.1289 37.8456C54.3217 37.8456 54.4592 37.8817 54.5414 37.9532C54.6228 38.0246 54.6635 38.1029 54.6635 38.1867C54.6635 38.2558 54.6412 38.3795 54.5967 38.5577C54.5521 38.7359 54.4891 38.9463 54.4077 39.1891C54.5337 39.0255 54.6919 38.8596 54.8809 38.6913C55.0698 38.5231 55.2872 38.3818 55.5322 38.2681C55.7773 38.1544 56.0446 38.0976 56.3342 38.0976C56.6606 38.0976 56.9302 38.1759 57.1415 38.3311C57.3527 38.487 57.4587 38.6913 57.4587 38.944C57.4587 39.1368 57.3934 39.3412 57.2636 39.5562C57.1338 39.7713 56.9518 39.9749 56.7182 40.1654C56.4847 40.3559 56.2074 40.511 55.8887 40.6293C55.5691 40.7484 55.2165 40.8075 54.8309 40.8075C54.6374 40.8075 54.4822 40.7929 54.3631 40.763C54.2441 40.733 54.1849 40.7038 54.1849 40.6739C54.1849 40.6539 54.2126 40.6432 54.2687 40.6401C54.3247 40.6378 54.3893 40.6362 54.4638 40.6362C54.761 40.6362 55.0445 40.5879 55.3156 40.4911C55.5868 40.3943 55.8295 40.2668 56.0454 40.1085C56.2604 39.9503 56.4294 39.7744 56.5523 39.5816C56.6745 39.3888 56.7359 39.1983 56.7359 39.0101C56.7359 38.8519 56.686 38.7167 56.5854 38.6053C56.4855 38.4939 56.3234 38.4386 56.1007 38.4386C55.9079 38.4386 55.7166 38.4793 55.5269 38.5607C55.3371 38.6422 55.1589 38.7466 54.9922 38.8726C54.8248 38.9986 54.6765 39.1299 54.5467 39.2659C54.4169 39.4019 54.3186 39.5248 54.2518 39.6331C54.1181 40.0041 53.9845 40.362 53.8508 40.7061C53.7171 41.0503 53.5889 41.3621 53.4667 41.6417C53.3438 41.9213 53.2332 42.1502 53.1326 42.3284C53.0327 42.5067 52.949 42.6157 52.8822 42.6549C52.8438 42.6826 52.7992 42.6948 52.7478 42.6948Z" fill="#3C4242"/>
<path d="M61.502 40.8083C61.2124 40.8083 60.9966 40.7476 60.856 40.6263C60.7147 40.5049 60.6448 40.3574 60.6448 40.1846C60.6448 40.0709 60.6763 39.9273 60.7393 39.7537C60.8022 39.5808 60.886 39.3988 60.9897 39.2083C61.0934 39.0178 61.214 38.838 61.3515 38.6698C61.489 38.5016 61.6357 38.3641 61.7916 38.2573C61.9475 38.1513 62.0996 38.0976 62.2486 38.0976C62.3155 38.0976 62.3731 38.1114 62.4215 38.1383C62.4699 38.1652 62.4937 38.2066 62.4937 38.2604C62.4937 38.3196 62.4361 38.4163 62.3208 38.55C62.2056 38.6836 62.0704 38.8373 61.9145 39.0101C61.7586 39.1837 61.6234 39.365 61.5082 39.5555C61.3929 39.746 61.3353 39.928 61.3353 40.1016C61.3353 40.2798 61.3799 40.3989 61.469 40.458C61.5581 40.5172 61.6956 40.5471 61.8815 40.5471C62.1342 40.5471 62.403 40.4634 62.6888 40.2944C62.9745 40.1262 63.2772 39.832 63.5967 39.4111L63.6966 39.4856C63.4815 39.9111 63.1712 40.2383 62.7664 40.4657C62.3608 40.6946 61.9398 40.8083 61.502 40.8083ZM62.8378 37.4078C62.7187 37.4078 62.6135 37.3878 62.5206 37.3486C62.4276 37.3087 62.3815 37.2472 62.3815 37.1627C62.3815 37.059 62.4722 36.9684 62.6542 36.8916C62.8363 36.8148 63.016 36.7764 63.1942 36.7764C63.3056 36.7764 63.3947 36.794 63.4615 36.8286C63.5284 36.8632 63.5614 36.9231 63.5614 37.0068C63.5614 37.1005 63.4853 37.1912 63.3332 37.278C63.1819 37.3648 63.0168 37.4078 62.8378 37.4078Z" fill="#3C4242"/>
<path d="M64.33 40.9573C64.0105 40.9573 63.7654 40.8951 63.5949 40.7714C63.4244 40.6478 63.3391 40.4649 63.3391 40.2222C63.3391 40.0048 63.4006 39.736 63.5227 39.4164C63.6448 39.0969 63.7992 38.7697 63.9851 38.4325C63.9106 38.4225 63.8407 38.414 63.7739 38.4063C63.7071 38.3987 63.6441 38.3879 63.5849 38.3733V38.2396C63.6441 38.2443 63.7147 38.2496 63.7962 38.2542C63.8776 38.2589 63.9705 38.2642 64.0742 38.2688C64.2301 38.0015 64.3976 37.7427 64.575 37.493C64.7532 37.2434 64.9299 37.0206 65.1043 36.8247C65.2787 36.6296 65.4461 36.4729 65.6059 36.357C65.7656 36.241 65.9008 36.1826 66.0122 36.1826C66.0714 36.1826 66.1251 36.1964 66.1735 36.2233C66.2219 36.2502 66.2457 36.2917 66.2457 36.3454C66.2457 36.4299 66.1682 36.5667 66.0122 36.7579C65.8563 36.9484 65.6635 37.175 65.433 37.4369C65.2026 37.6996 64.9798 37.9839 64.7648 38.2911C64.8316 38.2911 64.9 38.2911 64.9706 38.2911C65.0413 38.2911 65.1097 38.2911 65.1765 38.2911C65.4215 38.2911 65.6796 38.2888 65.9508 38.2834C66.2219 38.2788 66.4946 38.2658 66.7696 38.2466V38.3802C66.361 38.4102 65.9953 38.4325 65.6727 38.447C65.3501 38.4616 65.062 38.4693 64.8093 38.4693C64.7794 38.4693 64.7517 38.4693 64.7256 38.4693C64.6995 38.4693 64.6718 38.4693 64.6419 38.4693C64.4713 38.732 64.3262 39.0016 64.2079 39.2789C64.0888 39.5562 64.0297 39.8258 64.0297 40.0885C64.0297 40.3013 64.0781 40.4534 64.1741 40.5448C64.2701 40.6362 64.4299 40.6823 64.6534 40.6823C65.0398 40.6823 65.4185 40.5686 65.7895 40.3405C66.1605 40.1131 66.4869 39.8036 66.7696 39.4126L66.914 39.4871C66.7358 39.7644 66.5107 40.014 66.2404 40.2368C65.9692 40.4596 65.6704 40.6355 65.3439 40.7637C65.0167 40.8928 64.6795 40.9573 64.33 40.9573Z" fill="#3C4242"/>
<path d="M70.6454 41.0311C70.289 41.0311 69.9917 40.952 69.7544 40.7937C69.517 40.6355 69.3979 40.3981 69.3979 40.0809C69.3979 39.8336 69.4702 39.5924 69.6153 39.3565C69.7597 39.1215 69.951 38.9103 70.1891 38.7221C70.4265 38.5339 70.69 38.3841 70.9795 38.2727C71.2691 38.1613 71.5549 38.106 71.8375 38.106C72.1417 38.106 72.3499 38.1652 72.4613 38.2842C72.5727 38.4033 72.628 38.527 72.628 38.6552C72.628 38.7989 72.578 38.9249 72.4774 39.0339C72.3775 39.143 72.2416 39.1975 72.0711 39.1975C71.9451 39.1975 71.8375 39.1607 71.7477 39.0862C71.8591 39.047 71.9558 38.9663 72.0373 38.845C72.1187 38.7236 72.1602 38.6084 72.1602 38.4993C72.1602 38.4402 72.1433 38.3941 72.1102 38.3618C72.0764 38.3295 72.0119 38.3134 71.9151 38.3134C71.7146 38.3134 71.5088 38.3726 71.2968 38.4916C71.0855 38.6107 70.8881 38.7635 70.7069 38.9517C70.5248 39.1399 70.3766 39.3381 70.2613 39.5455C70.1461 39.7537 70.0885 39.9488 70.0885 40.1324C70.0885 40.286 70.1446 40.4266 70.256 40.5556C70.3673 40.6839 70.5824 40.7484 70.902 40.7484C71.1992 40.7484 71.498 40.6939 71.7984 40.5848C72.0987 40.4757 72.3791 40.3198 72.6395 40.117C72.8991 39.9142 73.1073 39.6761 73.2632 39.4042L73.4076 39.4787C73.2371 39.7759 73.0028 40.0417 72.7063 40.2768C72.409 40.5118 72.0826 40.6962 71.7262 40.8298C71.369 40.9642 71.0087 41.0311 70.6454 41.0311Z" fill="#3C4242"/>
<path d="M73.9758 40.8383C73.6562 40.8383 73.4281 40.7653 73.2906 40.6193C73.1531 40.4734 73.0847 40.2914 73.0847 40.074C73.0847 39.8366 73.1515 39.5539 73.2852 39.2275C73.4189 38.901 73.5955 38.5569 73.8144 38.1951C74.0334 37.8341 74.273 37.4815 74.5326 37.1366C74.7923 36.7925 75.0519 36.4799 75.3123 36.1972C75.5719 35.9153 75.8116 35.6895 76.0305 35.5212C76.2494 35.353 76.4223 35.2685 76.5482 35.2685C76.6297 35.2685 76.6965 35.2993 76.7487 35.3615C76.8009 35.4237 76.8417 35.4974 76.8716 35.5842C76.9008 35.671 76.9162 35.7486 76.9162 35.8177C76.9162 35.9514 76.8662 36.1258 76.7656 36.3416C76.6658 36.5567 76.5244 36.7971 76.3424 37.0621C76.1603 37.3271 75.9453 37.5944 75.6964 37.864C75.4475 38.1337 75.1763 38.3925 74.8837 38.6399C74.5903 38.8872 74.2807 39.1 73.9535 39.2782C73.9089 39.4118 73.8736 39.5417 73.8475 39.6684C73.8214 39.7944 73.8083 39.915 73.8083 40.0287C73.8083 40.2215 73.849 40.3651 73.9304 40.4596C74.0119 40.5533 74.1348 40.6009 74.2984 40.6009C74.4989 40.6009 74.6978 40.5418 74.8944 40.4227C75.0911 40.3036 75.277 40.1539 75.4513 39.9733C75.6257 39.7928 75.7763 39.6062 75.9022 39.4126L76.0689 39.4718C75.7717 39.8927 75.449 40.2253 75.0995 40.4703C74.7516 40.7161 74.3767 40.8383 73.9758 40.8383ZM74.0541 39.0262C74.3137 38.8526 74.5664 38.6537 74.8115 38.4286C75.0565 38.2036 75.2847 37.9693 75.4967 37.7273C75.7087 37.4846 75.8961 37.2495 76.0589 37.0222C76.2218 36.7948 76.3485 36.5905 76.4376 36.41C76.5267 36.2295 76.5713 36.0897 76.5713 35.9906C76.5713 35.9414 76.5621 35.9091 76.5436 35.8938C76.5252 35.8792 76.5083 35.8715 76.4937 35.8715C76.4345 35.8715 76.3324 35.9345 76.1872 36.0605C76.0428 36.1864 75.8738 36.3562 75.6802 36.569C75.4874 36.7817 75.2908 37.0245 75.0903 37.2964C74.8898 37.5683 74.6986 37.8533 74.5165 38.1506C74.3337 38.4471 74.1801 38.7397 74.0541 39.0262Z" fill="#3C4242"/>
<path d="M76.2143 40.9643C75.9839 40.9643 75.7888 40.9136 75.6298 40.8122C75.47 40.7108 75.3901 40.5564 75.3901 40.3482C75.3901 40.17 75.4493 39.978 75.5683 39.7729C75.6866 39.5678 75.8503 39.3642 76.0584 39.1637C76.2666 38.9633 76.5024 38.7804 76.7659 38.6145C77.0293 38.4486 77.3074 38.3165 77.6016 38.2174C77.895 38.1183 78.1861 38.0692 78.4757 38.0692C78.7653 38.0692 79.0065 38.1198 79.1993 38.2212C79.3921 38.3226 79.4889 38.4578 79.4889 38.6261C79.4889 38.7497 79.439 38.8342 79.3384 38.8788C79.2377 38.9233 79.1064 38.9456 78.9428 38.9456C78.9574 38.9056 78.9704 38.8626 78.9819 38.8158C78.9935 38.7689 78.9988 38.7259 78.9988 38.686C78.9988 38.5723 78.9581 38.4747 78.8767 38.3925C78.7945 38.3111 78.6539 38.2704 78.4535 38.2704C78.2453 38.2704 78.0341 38.3188 77.8182 38.4148C77.6031 38.5116 77.395 38.6399 77.1945 38.8012C76.994 38.9625 76.8158 39.1369 76.6599 39.3251C76.5039 39.5132 76.3818 39.6991 76.2919 39.8819C76.2028 40.0648 76.1583 40.2284 76.1583 40.372C76.1583 40.5648 76.2581 40.6616 76.4594 40.6616C76.6299 40.6616 76.8158 40.6086 77.0163 40.5018C77.2168 40.3958 77.4226 40.2591 77.6346 40.0932C77.8459 39.9273 78.0487 39.7552 78.2415 39.577C78.4343 39.3988 78.6056 39.2352 78.7538 39.0869C78.783 39.057 78.8022 39.0424 78.8091 39.0424C78.8537 39.047 78.9113 39.057 78.9819 39.0723C79.0526 39.0869 79.1141 39.1069 79.1655 39.1315C79.2178 39.1561 79.2439 39.1883 79.2439 39.2283C79.2439 39.2728 79.2101 39.3335 79.1432 39.4103C79.0764 39.4871 79.0019 39.5747 78.9205 39.6738C78.8383 39.7729 78.7646 39.8735 78.6977 39.9749C78.6309 40.0763 78.5979 40.1715 78.5979 40.2606C78.5979 40.3351 78.6271 40.4081 78.687 40.4796C78.7461 40.5518 78.8429 40.5871 78.9766 40.5871C79.177 40.5871 79.4405 40.4895 79.767 40.2937C80.0934 40.0986 80.4245 39.8051 80.7586 39.4134L80.87 39.4879C80.7141 39.7552 80.5136 39.9903 80.2686 40.193C80.0235 40.3958 79.7616 40.5548 79.4835 40.6685C79.2055 40.7822 78.932 40.839 78.6647 40.839C78.3897 40.839 78.1877 40.7845 78.0579 40.6754C77.9281 40.5664 77.8628 40.4481 77.8628 40.319C77.8628 40.2891 77.8666 40.256 77.8743 40.2192C77.8812 40.1823 77.8889 40.1439 77.8966 40.1039C77.577 40.3912 77.2859 40.6063 77.0224 40.7499C76.7582 40.8928 76.4886 40.9643 76.2143 40.9643Z" fill="#3C4242"/>
<path d="M81.7054 40.9942C81.3566 40.9942 81.0801 40.9435 80.8758 40.8421C80.6715 40.7407 80.5271 40.6155 80.441 40.4673C80.3558 40.319 80.3127 40.17 80.3127 40.0217C80.3127 39.8735 80.3427 39.759 80.4018 39.6799C80.4618 39.6008 80.534 39.5417 80.6192 39.5017C80.7045 39.4618 80.7859 39.4326 80.8643 39.4126C80.9426 39.3926 80.9956 39.3727 81.0256 39.3535C81.2483 39.1899 81.4527 39.0193 81.6385 38.8411C81.8244 38.6629 81.9873 38.4747 82.1286 38.2765V38.1874C82.1286 38.0046 82.1747 37.874 82.2676 37.7972C82.3606 37.7204 82.4589 37.682 82.5626 37.682C82.6218 37.682 82.6663 37.692 82.6963 37.712C82.7262 37.7319 82.7408 37.7542 82.7408 37.7788C82.7408 37.8034 82.7301 37.8433 82.7078 37.8979C82.6855 37.9524 82.674 38.0215 82.674 38.106C82.674 38.2696 82.7224 38.4463 82.8184 38.6368C82.9152 38.8273 83.0112 39.0278 83.108 39.2382C83.204 39.4487 83.2524 39.6676 83.2524 39.895C83.2524 39.9595 83.247 40.0225 83.2355 40.084C83.2247 40.1462 83.2078 40.2038 83.1856 40.2583C83.4452 40.2284 83.6902 40.1508 83.9207 40.0248C84.1511 39.8988 84.3739 39.6968 84.5889 39.4195L84.6888 39.494C84.5475 39.766 84.3362 39.9726 84.0543 40.1139C83.7724 40.2553 83.4636 40.3428 83.1295 40.3774C83.0104 40.5902 82.823 40.7461 82.5672 40.8452C82.3122 40.945 82.0241 40.9942 81.7054 40.9942ZM81.7276 40.7346C81.8168 40.7346 81.9358 40.7146 82.0841 40.6754C82.2323 40.6355 82.3475 40.5341 82.4297 40.3712C82.1179 40.3321 81.8413 40.2499 81.6001 40.1262C81.3589 40.0025 81.1784 39.8789 81.0601 39.7552C80.8965 39.7606 80.8151 39.8466 80.8151 40.0148C80.8151 40.193 80.895 40.3574 81.0548 40.5087C81.213 40.6585 81.4381 40.7346 81.7276 40.7346ZM82.485 40.2514C82.4996 40.2023 82.5111 40.15 82.5181 40.0955C82.5257 40.041 82.5296 39.9764 82.5296 39.9027C82.5296 39.6699 82.4866 39.4387 82.4013 39.2083C82.316 38.9778 82.2438 38.7612 82.1839 38.5585C82.0134 38.7466 81.8329 38.9264 81.6439 39.0969C81.455 39.2674 81.2744 39.4103 81.1039 39.524C81.2153 39.6822 81.3881 39.8312 81.6216 39.9695C81.8559 40.1085 82.1432 40.2023 82.485 40.2514Z" fill="#3C4242"/>
<path d="M85.5472 40.9942C85.1984 40.9942 84.9219 40.9435 84.7176 40.8421C84.5133 40.7407 84.3688 40.6155 84.2828 40.4673C84.1976 40.319 84.1545 40.17 84.1545 40.0217C84.1545 39.8735 84.1845 39.759 84.2436 39.6799C84.3036 39.6008 84.3758 39.5417 84.461 39.5017C84.5463 39.4618 84.6277 39.4326 84.7061 39.4126C84.7844 39.3926 84.8374 39.3727 84.8674 39.3535C85.0901 39.1899 85.2944 39.0193 85.4803 38.8411C85.6662 38.6629 85.8291 38.4747 85.9704 38.2765V38.1874C85.9704 38.0046 86.0165 37.874 86.1094 37.7972C86.2024 37.7204 86.3007 37.682 86.4044 37.682C86.4635 37.682 86.5081 37.692 86.5381 37.712C86.568 37.7319 86.5826 37.7542 86.5826 37.7788C86.5826 37.8034 86.5719 37.8433 86.5496 37.8979C86.5273 37.9524 86.5158 38.0215 86.5158 38.106C86.5158 38.2696 86.5642 38.4463 86.6602 38.6368C86.757 38.8273 86.853 39.0278 86.9498 39.2382C87.0458 39.4487 87.0942 39.6676 87.0942 39.895C87.0942 39.9595 87.0888 40.0225 87.0773 40.084C87.0665 40.1462 87.0496 40.2038 87.0274 40.2583C87.287 40.2284 87.532 40.1508 87.7625 40.0248C87.9929 39.8988 88.2157 39.6968 88.4307 39.4195L88.5306 39.494C88.3893 39.766 88.178 39.9726 87.8961 40.1139C87.6142 40.2553 87.3054 40.3428 86.9713 40.3774C86.8522 40.5902 86.6648 40.7461 86.409 40.8452C86.1548 40.945 85.8667 40.9942 85.5472 40.9942ZM85.5694 40.7346C85.6585 40.7346 85.7776 40.7146 85.9259 40.6754C86.0741 40.6355 86.1893 40.5341 86.2715 40.3712C85.9597 40.3321 85.6831 40.2499 85.4419 40.1262C85.2007 40.0025 85.0202 39.8789 84.9019 39.7552C84.7383 39.7606 84.6569 39.8466 84.6569 40.0148C84.6569 40.193 84.7368 40.3574 84.8966 40.5087C85.0556 40.6585 85.2799 40.7346 85.5694 40.7346ZM86.3268 40.2514C86.3414 40.2023 86.3529 40.15 86.3599 40.0955C86.3675 40.041 86.3714 39.9764 86.3714 39.9027C86.3714 39.6699 86.3284 39.4387 86.2431 39.2083C86.1578 38.9778 86.0856 38.7612 86.0257 38.5585C85.8552 38.7466 85.6747 38.9264 85.4857 39.0969C85.2968 39.2674 85.1162 39.4103 84.9457 39.524C85.0571 39.6822 85.2299 39.8312 85.4634 39.9695C85.6977 40.1085 85.9858 40.2023 86.3268 40.2514Z" fill="#3C4242"/>
<path d="M88.6999 42.6949C88.514 42.6949 88.3511 42.6618 88.2098 42.595C88.0685 42.5282 87.9978 42.4306 87.9978 42.3016C87.9978 42.1433 88.0577 42.002 88.176 41.8783C88.2943 41.7547 88.4541 41.641 88.6553 41.5365C88.8558 41.4328 89.0855 41.3337 89.3459 41.2392C89.6055 41.1455 89.8767 41.0511 90.1586 40.9573C90.2623 40.7745 90.3683 40.5702 90.4758 40.3451C90.5833 40.1201 90.6855 39.8712 90.7823 39.5993C90.5449 39.8566 90.2907 40.0778 90.0195 40.2637C89.7484 40.4496 89.4603 40.5418 89.1561 40.5418C89.0148 40.5418 88.8758 40.521 88.7383 40.4788C88.6008 40.4365 88.4879 40.3713 88.3988 40.2822C88.3097 40.193 88.2651 40.0794 88.2651 39.9403C88.2651 39.8021 88.3004 39.6408 88.3711 39.4579C88.4418 39.2751 88.5286 39.0969 88.633 38.9233C88.7367 38.7505 88.8443 38.6068 88.9564 38.4924C89.0686 38.3779 89.1646 38.3219 89.246 38.3219C89.276 38.3219 89.3297 38.3295 89.4073 38.3441C89.4857 38.3587 89.5594 38.3802 89.6301 38.4071C89.7008 38.4348 89.7361 38.4632 89.7361 38.4924C89.6693 38.5569 89.5948 38.6483 89.5133 38.7674C89.4311 38.8864 89.352 39.0186 89.2737 39.1645C89.1961 39.3105 89.1308 39.4526 89.0786 39.5916C89.0263 39.7299 89.001 39.8489 89.001 39.948C89.001 40.0371 89.0302 40.1085 89.0901 40.1631C89.1492 40.2176 89.2537 40.2445 89.4019 40.2445C89.5425 40.2445 89.7008 40.1992 89.8751 40.107C90.0495 40.0156 90.2238 39.8981 90.399 39.7544C90.5733 39.6108 90.7347 39.4572 90.8837 39.2943C90.906 39.2398 90.9259 39.1845 90.9451 39.1276C90.9636 39.0708 90.9805 39.0124 90.9951 38.9533C91.0173 38.8841 91.0711 38.8035 91.1564 38.7121C91.2416 38.6207 91.3776 38.5746 91.5627 38.5746C91.5996 38.5746 91.6365 38.5761 91.6741 38.5784C91.711 38.5807 91.7517 38.5869 91.7962 38.5969C91.7962 38.676 91.7609 38.8235 91.6902 39.0385C91.6196 39.2536 91.5189 39.5056 91.3891 39.7921C91.2593 40.0794 91.1049 40.3736 90.9267 40.6754C91.2754 40.5863 91.6173 40.4388 91.9514 40.2338C92.2855 40.0287 92.5567 39.7544 92.7641 39.4134L92.9085 39.4879C92.7971 39.7253 92.6281 39.9319 92.4015 40.1078C92.1749 40.2837 91.9207 40.4342 91.6388 40.561C91.3568 40.687 91.078 40.7922 90.803 40.8767C90.6102 41.1932 90.4005 41.4904 90.1739 41.7677C89.9473 42.045 89.71 42.2693 89.4611 42.4398C89.2138 42.6096 88.9595 42.6949 88.6999 42.6949ZM88.6438 42.4567C88.7552 42.4567 88.9426 42.3592 89.2061 42.1633C89.4695 41.9674 89.7499 41.6248 90.0472 41.1348C89.743 41.2439 89.4603 41.3514 89.2007 41.4582C88.9411 41.5642 88.7329 41.6794 88.577 41.8038C88.421 41.9275 88.3435 42.0711 88.3435 42.2347C88.3435 42.2747 88.3657 42.3215 88.4103 42.3761C88.4548 42.4299 88.5324 42.4567 88.6438 42.4567Z" fill="#3C4242"/>
<path d="M92.9985 40.69C92.9017 40.69 92.8188 40.6739 92.7481 40.6416C92.6774 40.6094 92.6421 40.5587 92.6421 40.4895C92.6421 40.435 92.6751 40.3843 92.7419 40.3375C92.8088 40.2906 92.8925 40.253 92.9924 40.2261C93.0922 40.1992 93.1905 40.1854 93.2873 40.1854C93.3764 40.1854 93.4471 40.1977 93.4986 40.2222C93.55 40.2468 93.5761 40.2944 93.5761 40.3636C93.5761 40.4135 93.5485 40.4627 93.4924 40.5118C93.4363 40.561 93.3641 40.6032 93.275 40.6378C93.1859 40.6724 93.0953 40.69 92.9985 40.69Z" fill="#3C4242"/>
</g>
<defs>
<filter id="filter0_d_307_1427" x="0.432617" y="-1" width="99.9285" height="53" filterUnits="userSpaceOnUse" color-interpolation-filters="sRGB">
<feFlood flood-opacity="0" result="BackgroundImageFix"/>
<feColorMatrix in="SourceAlpha" type="matrix" values="0 0 0 0 0 0 0 0 0 0 0 0 0 0 0 0 0 0 127 0" result="hardAlpha"/>
<feOffset dy="3"/>
<feGaussianBlur stdDeviation="2"/>
<feComposite in2="hardAlpha" operator="out"/>
<feColorMatrix type="matrix" values="0 0 0 0 0 0 0 0 0 0 0 0 0 0 0 0 0 0 0.1 0"/>
<feBlend mode="normal" in2="BackgroundImageFix" result="effect1_dropShadow_307_1427"/>
<feBlend mode="normal" in="SourceGraphic" in2="effect1_dropShadow_307_1427" result="shape"/>
</filter>
</defs>
</svg>
